{"title":"Udaan 2010 Pre-DVDrip Xvid ][VAMPIRE ROCK's][BY DDH","uid":5786532,"size":731213824,"categoryP":"video","categoryS":"movies","magnet":"?xt=urn:btih:5b52b222ba56dd20671dba0efdda41920983220a&amp;dn=+Udaan+2010+Pre-DVDrip+Xvid+%5D%5BVAMPIRE+ROCK%5C%27s%5D%5BBY+DDH&amp;tr=udp%3A%2F%2Ftracker.openbittorrent.com%3A80&amp;tr=udp%3A%2F%2Fopen.demonii.com%3A1337&amp;tr=udp%3A%2F%2Ftracker.coppersurfer.tk%3A6969&amp;tr=udp%3A%2F%2Fexodus.desync.com%3A6969","seeders":0,"leechers":0,"uploader":"Vamp111","files":1,"time":1282658128,"description":"[IMG]http://i1022.photobucket.com/albums/af345/bhoottt/Udaan.jpg[/IMG]\n\n[IMG]http://i1022.photobucket.com/albums/af345/bhoottt/Udaan2010Pre-DVDripXvidVAMPIREROCKs_20100824-16572373.jpg[/IMG]\n[IMG]http://i1022.photobucket.com/albums/af345/bhoottt/Udaan2010Pre-DVDripXvidVAMPIREROCKs_20100824-16562692.jpg[/IMG]\n[IMG]http://i1022.photobucket.com/albums/af345/bhoottt/Udaan2010Pre-DVDripXvidVAMPIREROCKs_20100824-16531842.jpg[/IMG]\n[IMG]http://i1022.photobucket.com/albums/af345/bhoottt/Udaan2010Pre-DVDripXvidVAMPIREROCKs_20100824-16524706.jpg[/IMG]\n[IMG]http://i1022.photobucket.com/albums/af345/bhoottt/Udaan2010Pre-DVDripXvidVAMPIREROCKs_20100824-16514107.jpg[/IMG]\n\n\nVideo\nID                               : 0\nFormat                           : MPEG-4 Visual\nFormat profile                   : Advanced Simple@L5\nFormat settings, BVOP            : Yes\nFormat settings, QPel            : No\nFormat settings, GMC             : No warppoints\nFormat settings, Matrix          : Default (H.263)\nCodec ID                         : XVID\nCodec ID/Hint                    : XviD\nDuration                         : 2h 7mn\nBit rate                         : 699 Kbps\nWidth                            : 640 pixels\nHeight                           : 272 pixels\nDisplay aspect ratio             : 2.35:1\nFrame rate                       : 23.976 fps\nResolution                       : 8 bits\nColorimetry                      : 4:2:0\nScan type                        : Progressive\nBits/(Pixel*Frame)               : 0.167\nStream size                      : 638 MiB (91%)\nWriting library                  : XviD 1.2.1 (UTC 2008-12-04)\n\nAudio\nID                               : 1\nFormat                           : MPEG Audio\nFormat version                   : Version 2\nFormat profile                   : Layer 3\nMode                             : Joint stereo\nFormat_Settings_ModeExtension    : MS Stereo\nCodec ID                         : 55\nCodec ID/Hint                    : MP3\nDuration                         : 2h 7mn\nBit rate mode                    : Constant\nBit rate                         : 56.0 Kbps\nChannel(s)                       : 2 channels\nSampling rate                    : 24.0 KHz\nStream size                      : 51.1 MiB (7%)\nAlignment                        : Aligned on interleaves","torrent":{"xt":"urn:btih:5b52b222ba56dd20671dba0efdda41920983220a","amp;dn":"+Udaan+2010+Pre-DVDrip+Xvid+%5D%5BVAMPIRE+ROCK%5C%27s%5D%5BBY+DDH","amp;tr":["udp%3A%2F%2Ftracker.openbittorrent.com%3A80","udp%3A%2F%2Fopen.demonii.com%3A1337","udp%3A%2F%2Ftracker.coppersurfer.tk%3A6969","udp%3A%2F%2Fexodus.desync.com%3A6969"],"infoHash":"5b52b222ba56dd20671dba0efdda41920983220a","infoHashBuffer":{"type":"Buffer","data":[91,82,178,34,186,86,221,32,103,29,186,14,253,218,65,146,9,131,34,10]},"announce":[],"urlList":[]}}